Coordinates
version=1
nRows=8
nColumns=40
inDegrees=yes

Units are S.I. units (second, meters, Newtons, ...)
If the header above contains a line with 'inDegrees', this indicates whether rotational values are in degrees (yes) or radians (no).

endheader
time	pelvis_tilt	pelvis_list	pelvis_rotation	pelvis_tx	pelvis_ty	pelvis_tz	hip_flexion_r	hip_adduction_r	hip_rotation_r	knee_angle_r	ankle_angle_r	subtalar_angle_r	mtp_angle_r	hip_flexion_l	hip_adduction_l	hip_rotation_l	knee_angle_l	ankle_angle_l	subtalar_angle_l	mtp_angle_l	lumbar_extension	lumbar_bending	lumbar_rotation	sh_tx_r	sh_ty_r	sh_tz_r	sh_plane_elev_r	sh_elev_r	sh_axial_rot_r	elbow_flex_r	pro_sup_r	sh_tx_l	sh_ty_l	sh_tz_l	sh_plane_elev_l	sh_elev_l	sh_axial_rot_l	elbow_flex_l	pro_sup_l
     16.05000000	    -47.66755192	      1.47371102	      3.35325101	      0.57859191	      0.77452258	      0.49857293	     83.93352004	     -4.52547575	      1.01719671	     76.94141340	     19.04596616	    -28.81060421	      0.00000000	     83.62522192	     -4.57141341	     -6.81166438	     74.04618189	     21.14188974	    -12.97277988	      0.00000000	    -18.82663473	     -6.85199202	     -2.29755205	      0.01272717	      0.03952440	     -0.01000000	     78.84859571	     88.14190393	    -57.98064062	    122.07194489	     98.59416228	      0.01758212	      0.02761869	     -0.01000000	     85.84207666	     98.31608762	    -58.85019864	    115.78355710	     89.64241668
     16.06666670	    -47.56340259	      1.43833268	      3.53404458	      0.58250615	      0.77750295	      0.49817016	     83.06841489	     -4.59046207	      1.09380660	     75.96771102	     18.82590030	    -28.95101437	      0.00000000	     82.99653385	     -4.28674258	     -6.68015023	     73.29431649	     20.68252576	    -12.87603989	      0.00000000	    -18.71754766	     -6.56884098	     -2.11007042	      0.01084127	      0.03614783	     -0.00938692	     78.71418782	     87.75590215	    -57.98272553	    122.32253178	     98.59270492	      0.01602518	      0.02313876	     -0.01000000	     85.49357692	     97.92691562	    -58.83857711	    115.50087141	     89.61490203
     16.08333330	    -46.66055640	      1.03472342	      3.76860427	      0.58906419	      0.78126501	      0.49834658	     81.06428804	     -4.56173112	      0.75243059	     74.86322851	     18.12259330	    -30.32130925	      0.00000000	     81.66996730	     -4.00392092	     -6.00307061	     72.96428535	     19.98942751	    -13.47939876	      0.00000000	    -18.60869216	     -5.94800763	     -2.09898593	      0.01508825	      0.03927840	     -0.01000000	     78.36780793	     84.81856592	    -57.44198822	    123.96216471	     98.67458351	      0.01794150	      0.02118997	     -0.01000000	     84.94956658	     96.23949126	    -58.69849943	    114.87789960	     89.41017568
     16.10000000	    -46.23244286	      0.82716754	      3.89627020	      0.59557297	      0.78453350	      0.49987447	     79.48482779	     -4.47710514	      0.49595387	     73.79016307	     18.27776343	    -30.84663658	      0.00000000	     80.57503071	     -3.93185030	     -5.66915717	     72.52742034	     19.81880557	    -13.42380035	      0.00000000	    -18.26521814	     -5.70188955	     -1.99371189	      0.01360203	      0.03620244	     -0.01000000	     78.06762910	     83.08029078	    -57.40161659	    123.73869068	     98.74269183	      0.01746258	      0.01846972	     -0.01000000	     84.42564386	     94.79851574	    -58.43178497	    114.38724867	     89.33527292
     16.11666670	    -46.15675955	      0.64158653	      3.82540915	      0.59929285	      0.78810539	      0.50227778	     78.36985422	     -4.08959469	      0.32865231	     72.68407601	     18.25994710	    -31.68145459	      0.00000000	     79.82417782	     -4.08765388	     -5.38455655	     71.95971225	     19.62889680	    -13.24063975	      0.00000000	    -17.04327137	     -5.70883525	     -1.90181796	      0.01637513	      0.03502787	     -0.01000000	     77.77984301	     80.07145817	    -57.42871352	    124.14904622	     98.98817384	      0.02063024	      0.01769946	     -0.01000000	     83.67257362	     92.26846958	    -58.06174104	    114.69159215	     89.16668059
     16.13333330	    -45.72350632	      0.51508575	      3.50918833	      0.60072585	      0.79459574	      0.50406572	     76.99526483	     -3.52904088	      0.15487977	     71.37980414	     18.27602137	    -31.91398024	      0.00000000	     78.65925315	     -4.39122937	     -5.15141834	     71.04552916	     19.29306899	    -13.39051703	      0.00000000	    -16.82714291	     -5.75295713	     -1.69030294	      0.01492181	      0.03264986	     -0.01000000	     77.14525778	     78.15348900	    -57.85069878	    123.28905562	     99.04750654	      0.02040952	      0.01659996	     -0.01000000	     82.62850684	     90.64800892	    -57.99133231	    113.97927139	     89.10545937
     16.15000000	    -45.65356060	      0.49536930	      3.14343978	      0.60128376	      0.80232630	      0.50376232	     76.09487052	     -3.06648971	      0.13744598	     69.83503405	     17.44591891	    -32.34469819	      0.00000000	     77.72740467	     -4.47793511	     -4.96791374	     69.59943545	     18.52332973	    -13.67269023	      0.00000000	    -15.86345290	     -6.05926426	     -1.75149384	      0.01698185	      0.03125846	     -0.01000000	     76.16537924	     75.24694596	    -58.57254846	    122.31399318	     99.11994662	      0.02209862	      0.01803095	     -0.01000000	     81.21870226	     87.92731103	    -57.89861402	    113.32117761	     88.88834964
     16.16666670	    -44.99698386	      0.56842921	      2.58459029	      0.60267271	      0.81167423	      0.50218769	     74.57183404	     -2.64678986	      0.21242615	     68.06054726	     16.61061616	    -32.22082131	      0.00000000	     76.04001170	     -4.54847084	     -4.89777089	     67.88578200	     17.83489006	    -14.04126923	      0.00000000	    -15.95557802	     -6.20427440	     -1.62384377	      0.01683211	      0.02991092	     -0.01000000	     74.96039546	     73.31248567	    -59.06922789	    120.64679715	     99.06157103	      0.02200721	      0.01784546	     -0.01000000	     79.69729521	     85.95946931	    -58.30184125	    111.84818944	     88.74723872
